<svg width="367" height="247" viewBox="0 0 367 247" fill="none" xmlns="http://www.w3.org/2000/svg">
<path d="M0.545532 0.813202L366.546 0.813202L366.546 246.813L0.545532 246.813L0.545532 0.813202Z" fill="#DBCF65"/>
<path d="M366.546 246.813L0.545746 246.813L1.05707 131.912L54.9915 132.152C65.0516 132.197 74.8913 129.206 83.2246 123.57L91.7508 117.804C108.329 106.592 129.994 106.346 146.823 117.177L156.772 123.581C175.73 135.783 200.509 133.789 217.271 118.712L238.991 99.1751C245.307 93.4943 252.965 89.5162 261.245 87.6162L305.709 77.4122C319.692 74.2032 331.623 65.1424 338.468 52.5341L366.546 0.813171L366.546 246.813Z" fill="#3298C4"/>
</svg>
