<svg width="300" height="292" viewBox="0 0 300 292" fill="none" xmlns="http://www.w3.org/2000/svg">
<path d="M295 146C295 223.746 230.21 287 150 287C69.7905 287 5 223.746 5 146C5 68.2544 69.7905 5 150 5C230.21 5 295 68.2544 295 146Z" fill="#FFFDFD" stroke="black" stroke-width="10"/>
<path d="M195.233 232H192.064L163 163H176.17L194.093 210.29L212.398 163H225L195.233 232Z" stroke="#05C71E" stroke-miterlimit="10"/>
<path d="M162.319 204.918H127.914C127.914 211.234 129.444 216.089 132.505 219.481C135.21 222.442 138.686 223.92 142.934 223.917C147.779 223.917 151.821 222.321 155.059 219.128L158.618 226.037C157.3 227.527 155.293 228.803 152.599 229.864C148.97 231.328 145.141 232.05 141.289 231.997C135.285 231.997 130.189 229.694 126 225.089C121.333 220.021 119 213.2 119 204.627C119 195.723 121.393 188.583 126.178 183.208C130.457 178.403 135.524 176 141.379 176C148.187 176 153.52 178.167 157.38 182.502C161.126 186.675 163 192.202 163 199.082C163.01 201.053 162.781 203.017 162.319 204.918V204.918ZM141.755 184.049C137.982 184.049 134.819 185.428 132.264 188.185C129.854 190.746 128.376 194.232 128.119 197.96H154.552C154.552 194.084 153.483 190.859 151.345 188.283C149.009 185.46 145.821 184.049 141.779 184.049H141.755Z" stroke="#05C71E" stroke-miterlimit="10"/>
<path d="M74.1003 232H58V151.551C68.259 151.187 74.8266 151.003 77.7029 151C88.8754 151 97.7173 154.41 104.228 161.231C110.74 168.052 113.997 177.146 114 188.514C114 217.508 100.7 232.003 74.1003 232ZM68.9095 161.436V221.569C71.9124 221.97 74.9402 222.152 77.9692 222.115C85.6102 222.115 91.6129 219.232 95.9774 213.467C100.342 207.702 102.526 199.694 102.529 189.444C102.529 170.405 94.0324 160.885 77.0395 160.885C76.0291 160.885 73.3191 161.069 68.9095 161.436Z" stroke="#05C71E" stroke-miterlimit="10"/>
<path d="M219.883 61.0586L217.979 58.4219C220.908 58.1289 222.861 57.9824 223.838 57.9824C235.068 57.3965 241.27 56.9082 242.441 56.5176L250.645 56.2246C252.207 56.3223 252.988 56.7617 252.988 57.543C252.695 57.9336 252.549 58.5684 252.549 59.4473C253.135 60.1309 253.428 60.5703 253.428 60.7656V65.3066L253.574 65.4531C253.574 67.6016 251.426 71.2637 247.129 76.4395C245.371 78.8809 243.809 81.7129 242.441 84.9355C242.051 85.3262 240.83 87.5723 238.779 91.6738C233.311 100.072 228.379 108.568 223.984 117.162C223.594 117.357 222.324 119.311 220.176 123.021C217.832 125.854 214.805 130.59 211.094 137.23V137.377C211.289 137.865 211.875 138.109 212.852 138.109H212.998L227.061 137.23C231.553 137.23 237.461 137.67 244.785 138.549C245.664 138.549 246.592 135.57 247.568 129.613L248.447 130.639C248.838 129.662 249.473 128.93 250.352 128.441C255.625 129.32 258.115 129.369 257.822 128.588C258.799 128.686 259.629 135.619 260.312 149.389C259.043 149.291 248.35 149.486 228.232 149.975L207.432 151.732C206.26 152.318 204.941 152.611 203.477 152.611L200.4 151.439L196.885 151.879H196.592C193.955 151.879 192.441 151.391 192.051 150.414L192.344 149.682V147.924C192.539 144.408 197.08 136.889 205.967 125.365C206.064 124.877 209.189 120.043 215.342 110.863C222.373 98.9492 229.258 88.3047 235.996 78.9297C236.875 77.6602 239.023 75.0723 242.441 71.166L242.588 70.4336C242.1 70.1406 241.074 69.9941 239.512 69.9941H239.219C234.922 69.9941 227.549 70.8242 217.1 72.4844H216.514L208.896 71.8984L207.725 74.3887L208.75 82.7383C208.75 83.8125 205.527 84.6426 199.082 85.2285C197.812 82.5918 197.178 80.1992 197.178 78.0508V74.8281V72.7773L197.471 63.4023L196.592 61.0586C196.885 61.0586 197.568 60.2285 198.643 58.5684C199.131 58.0801 200.889 58.666 203.916 60.3262C203.135 59.5449 202.744 59.0566 202.744 58.8613V58.5684L202.891 58.4219L205.234 60.1797C209.141 59.7891 212.51 59.3496 215.342 58.8613L214.316 59.1543V59.4473H215.049C218.467 61.2051 220.176 61.791 220.176 61.2051L219.883 61.0586ZM222.52 60.1797C222.52 60.5703 227.158 60.8633 236.436 61.0586L239.805 61.6445C240.684 61.2539 241.562 61.0586 242.441 61.0586H245.078L248.887 58.2754V57.9824C247.129 58.5684 245.322 58.8613 243.467 58.8613C229.502 59.1543 222.52 59.5938 222.52 60.1797ZM235.41 86.4004V87.1328C236.289 87.1328 238.633 84.3496 242.441 78.7832L248.594 70.7266V70.4336H248.008C246.25 70.4336 244.053 72.2402 241.416 75.8535C240.342 78.1973 238.34 81.7129 235.41 86.4004ZM245.811 63.2559L244.639 63.5488L234.971 63.4023C233.506 64.1836 231.797 64.8184 229.844 65.3066V65.4531L231.895 65.8926H232.92L240.391 64.5742C242.637 64.4766 244.492 64.1348 245.957 63.5488V63.2559H245.811ZM205.088 63.9883H204.941L205.088 67.0645H205.381C206.162 66.2832 206.748 65.8926 207.139 65.8926L210.801 66.0391H213.291V65.5996C213.291 65.0137 210.557 64.4766 205.088 63.9883ZM220.762 115.697V115.844C221.738 115.844 222.861 113.939 224.131 110.131C225.303 108.861 225.889 107.934 225.889 107.348V107.055C224.424 107.055 222.715 109.936 220.762 115.697ZM255.625 147.338C255.918 148.217 256.455 148.656 257.236 148.656C257.725 148.656 257.969 148.51 257.969 148.217L257.529 142.797H257.09C256.504 142.797 256.016 144.311 255.625 147.338ZM220.322 147.631V147.924L222.52 148.07H223.545C226.963 148.07 229.453 147.924 231.016 147.631V147.191L230.137 147.045H229.99C225.498 147.045 222.275 147.24 220.322 147.631ZM211.387 148.656V149.096L211.68 149.389H211.973C214.512 149.389 216.025 148.998 216.514 148.217C216.514 148.119 215.684 147.973 214.023 147.777C212.266 147.973 211.387 148.266 211.387 148.656ZM207.432 134.447L207.139 135.18V135.473C209.287 133.422 210.996 131.176 212.266 128.734V128.295C210.703 129.76 209.092 131.811 207.432 134.447ZM237.9 61.791L230.723 62.084H230.43V62.2305H240.684L240.977 62.084L237.9 61.791ZM212.852 69.2617V69.9941H212.998L217.979 69.2617V69.1152L217.539 68.6758H215.342C214.463 68.6758 213.633 68.8711 212.852 69.2617ZM194.834 149.096L195.273 149.682H197.617L198.203 149.096V148.949L197.617 148.217H196.592C195.518 148.217 194.932 148.51 194.834 149.096ZM211.387 62.2305L210.947 62.6699V63.1094L212.852 63.2559C214.023 63.2559 214.609 63.0605 214.609 62.6699V62.5234L213.73 62.2305H211.387ZM198.643 80.9805L198.936 81.5664H199.229C199.912 81.1758 200.449 80.4922 200.84 79.5156L200.547 79.0762H199.961C199.473 79.2715 199.033 79.9062 198.643 80.9805ZM210.215 140.746H213.877L214.316 140.307L213.877 140.014H212.998C211.143 140.014 210.215 140.258 210.215 140.746ZM248.301 146.02L247.422 146.752L247.715 147.191H248.594C249.277 147.191 249.668 146.996 249.766 146.605L249.18 146.02H248.301ZM232.773 138.842L232.188 139.428C232.188 139.721 232.383 139.867 232.773 139.867C233.945 139.672 234.531 139.428 234.531 139.135L234.385 138.842H232.773ZM248.887 136.498L248.301 137.23V137.816L248.594 138.109H248.74C249.229 137.914 249.473 137.523 249.473 136.938V136.498H248.887ZM209.043 149.096L208.604 149.682V150.268H210.068L210.508 149.682L210.215 149.096H209.043ZM244.639 143.383H243.467V143.529C243.467 143.822 243.906 144.066 244.785 144.262L245.078 143.969V143.822L244.639 143.383ZM224.57 62.8164H223.838V63.1094C223.936 63.4023 224.326 63.5488 225.01 63.5488V63.2559L224.57 62.8164ZM217.979 58.4219H217.832L215.488 58.8613C216.367 58.5684 217.197 58.4219 217.979 58.4219ZM199.082 72.1914H198.643V72.6309L199.082 72.9238H199.521V72.6309L199.082 72.1914ZM237.754 146.752H237.168V147.191H237.754V146.752Z" fill="black"/>
<path d="M156.96 141.791L154.082 146H150V80H158.165V102.342C158.927 101.278 160.381 100.3 162.525 99.407C164.514 98.5466 166.653 98.0926 168.818 98.0716C175.12 98.0716 180.226 100.256 184.134 104.626C188.042 108.996 189.997 114.516 190 121.186C190 128.893 188.038 134.953 184.115 139.369C180.191 143.785 174.878 145.995 168.174 146C165.975 145.993 163.796 145.571 161.751 144.756C159.647 143.938 158.05 142.949 156.96 141.791ZM158.165 108.583V135.248C158.165 135.707 159.181 136.462 161.214 137.513C163.247 138.564 164.793 139.088 165.853 139.086C171.41 139.086 175.392 137.749 177.799 135.076C180.205 132.403 181.408 127.917 181.408 121.619C181.408 116.389 180.004 112.308 177.197 109.375C174.389 106.441 170.607 104.974 165.853 104.974C164.852 104.974 163.454 105.405 161.66 106.268C159.876 107.129 158.702 107.905 158.165 108.594V108.583Z" fill="black"/>
<path d="M124.975 146V110.194H119V103.919H132.702V146H124.975ZM129.204 88.0017C129.835 87.9919 130.462 88.1072 131.046 88.3404C131.629 88.5736 132.157 88.9199 132.597 89.3578C133.048 89.7769 133.404 90.2808 133.646 90.8384C133.887 91.3961 134.007 91.9955 134 92.5999C134.001 93.209 133.877 93.8124 133.637 94.3753C133.396 94.9383 133.043 95.4497 132.597 95.8805C132.152 96.3112 131.623 96.6527 131.04 96.8854C130.458 97.118 129.834 97.2373 129.204 97.2364C128.566 97.2534 127.931 97.1465 127.336 96.9221C126.741 96.6977 126.199 96.3603 125.741 95.9298C125.284 95.4994 124.92 94.9846 124.672 94.416C124.423 93.8474 124.295 93.2363 124.295 92.6191C124.295 92.0018 124.423 91.3908 124.672 90.8222C124.92 90.2535 125.284 89.7388 125.741 89.3083C126.199 88.8779 126.741 88.5405 127.336 88.3161C127.931 88.0917 128.566 87.9848 129.204 88.0017V88.0017Z" fill="black"/>
<path d="M74.1003 146H58V65.5505C68.2622 65.1867 74.8299 65.0032 77.7029 65C88.8755 65 97.7173 68.4103 104.228 75.231C110.74 82.0516 113.997 91.1458 114 102.514C114 131.508 100.7 146.003 74.1003 146ZM68.9143 75.4356V135.569C71.9189 135.97 74.9483 136.152 77.9789 136.115C85.6199 136.115 91.6226 133.232 95.987 127.467C100.351 121.702 102.535 113.695 102.539 103.444C102.539 84.4047 94.0421 74.8851 77.0492 74.8851C76.0275 74.8851 73.3207 75.0702 68.9143 75.4356Z" fill="black"/>
</svg>
