<svg id="Layer_1" data-name="Layer 1" xmlns="http://www.w3.org/2000/svg" viewBox="0 0 531 531"><defs><style>.cls-1,.cls-2,.cls-3{fill:none;stroke-miterlimit:10;}.cls-1,.cls-2{stroke:#000;}.cls-2{stroke-width:20px;}.cls-3{stroke:#666;stroke-width:3px;}</style></defs><path d="M511.71,511.71H478.46V346.58q31.79-1.12,40.69-1.13,34.61,0,54.78,21t20.18,56Q594.11,511.72,511.71,511.71ZM501,366.87V490.3a130.43,130.43,0,0,0,18.72,1.12q23.67,0,37.19-17.75t13.53-49.31q0-58.62-52.64-58.62C515.69,365.74,510.1,366.12,501,366.87Z" transform="translate(-374.75 -246.6)"/><path d="M628.71,508.71V406H612.14V388h38V508.71Zm11.73-166.37a12.83,12.83,0,0,1,9.41,3.89,12.69,12.69,0,0,1,3.89,9.3,13.28,13.28,0,0,1-13.3,13.3,13.25,13.25,0,1,1,0-26.49Z" transform="translate(-374.75 -246.6)"/><path d="M702.43,500,694.88,511H684.17V338.51h21.42V396.9q3-4.17,11.44-7.67a42.75,42.75,0,0,1,16.51-3.49q24.8,0,40.18,17.13t15.39,43.28q0,30.21-15.44,47.52T731.85,511A46.08,46.08,0,0,1,715,507.75Q706.72,504.54,702.43,500Zm3.16-86.79V482.9q0,1.8,8,5.92t12.17,4.11q21.87,0,31.34-10.48t9.47-35.17q0-20.5-11.05-32t-29.76-11.5q-3.94,0-11,3.38C710.08,409.41,707,411.44,705.59,413.24Z" transform="translate(-374.75 -246.6)"/><path class="cls-1" d="M512.72,679.71H479.47V514.58q31.78-1.12,40.69-1.13,34.61,0,54.78,21t20.18,56Q595.12,679.72,512.72,679.71ZM502,534.87V658.3a130.19,130.19,0,0,0,18.71,1.12q23.67,0,37.19-17.75t13.53-49.31q0-58.62-52.64-58.62Q515.66,533.74,502,534.87Z" transform="translate(-374.75 -246.6)"/><path class="cls-1" d="M710,617.44H623q0,21.19,11.61,32.57,10.26,9.93,26.37,9.92,18.38,0,30.66-10.71l9,15.45q-5,5-15.22,8.56A82.19,82.19,0,0,1,656.82,678q-22.77,0-38.66-15.45-17.7-17-17.7-45.76,0-29.87,18.15-47.9,16.23-16.12,38.44-16.12,25.82,0,40.46,14.54,14.21,14,14.21,37.08A48.16,48.16,0,0,1,710,617.44Zm-52-46.67q-14.31,0-24,9.25a33.57,33.57,0,0,0-10.48,21.86h66.84q0-13-8.11-21.64Q673.39,570.77,658.06,570.77Z" transform="translate(-374.75 -246.6)"/><path class="cls-1" d="M777.77,678h-5.64L720.4,554.65h23.44l31.9,84.54,32.58-84.54h22.43Z" transform="translate(-374.75 -246.6)"/><circle class="cls-2" cx="265.5" cy="265.5" r="255.5"/><line class="cls-3" x1="104" y1="266" x2="466" y2="265"/></svg>